<?xml version="1.0" encoding="utf-8"?>
<!-- Generator: Adobe Illustrator 22.1.0, SVG Export Plug-In . SVG Version: 6.00 Build 0)  -->
<svg version="1.1" id="Warstwa_1" xmlns="http://www.w3.org/2000/svg" xmlns:xlink="http://www.w3.org/1999/xlink" x="0px" y="0px"
	 viewBox="0 0 117.4 20.8" style="enable-background:new 0 0 117.4 20.8;" xml:space="preserve">
<style type="text/css">
	.st0{fill:#000000;}
</style>
<g>
	<g>
		<path class="st0" d="M0.4,18c0,0,1.4,1.1,3.2,1.1c1.4,0,2.1-0.6,2.1-1.5c0-2.4-5.5-2-5.5-5.6c0-1.7,1.2-3.1,4.1-3.1
			c1.9,0,3.1,0.6,3.1,0.6l-0.5,1.6c0,0-1.3-0.6-2.7-0.6c-1.3,0-2,0.5-2,1.3c0,2.3,5.5,1.9,5.5,5.6c0,2-1.6,3.2-4.1,3.2
			c-2.3,0-3.6-1-3.6-1L0.4,18z"/>
		<path class="st0" d="M10.4,10.8H8.8v-1l1.6-0.6V6.6l1.9-0.5v3.1H16v1.6h-3.6V17c0,1.5,0.5,2.1,1.4,2.1c1.2,0,2.4-1,2.4-1l0.5,1.6
			c0,0-1.4,1.1-3.2,1.1c-1.8,0-2.9-1-2.9-3.3L10.4,10.8L10.4,10.8z"/>
		<path class="st0" d="M18,9.2H20v7.6c0,1.7,0.7,2.2,1.6,2.2c1.4,0,3-1.3,3.8-2.1V9.2h1.9V17c0,1.4,0.5,3.5,0.5,3.5l-1.9,0.2
			c0,0-0.3-1.2-0.4-2c-0.7,0.7-2.3,2.2-4.4,2.2c-1.8,0-3-0.9-3-3.4V9.2z"/>
		<path class="st0" d="M35.8,8.9c1.1,0,1.9,0.3,2.2,0.4V3l1.9-0.4V17c0,1.4,0.5,3.5,0.5,3.5l-1.9,0.2c0,0-0.2-1-0.3-1.8
			c-0.6,1-1.8,1.9-3.6,1.9c-2.9,0-4.8-2.4-4.8-5.5C29.6,12,31.7,8.9,35.8,8.9z M37.9,17v-4.8c0-1.2-1.1-1.6-2.1-1.6
			c-2.4,0-4.1,1.6-4.1,4.5c0,2.5,1.3,4,3,4C36.5,19.1,37.6,17.5,37.9,17z"/>
		<path class="st0" d="M42.6,5c0-0.7,0.6-1.3,1.3-1.3s1.3,0.6,1.3,1.3c0,0.7-0.6,1.3-1.3,1.3S42.6,5.8,42.6,5z M43,9.2h1.9v11.2H43
			V9.2z"/>
		<path class="st0" d="M52.7,8.9c3.5,0,5.5,2.8,5.5,5.7c0,2.7-1.8,6.1-5.6,6.1c-3.5,0-5.5-2.9-5.5-5.9C47.2,12.1,49,8.9,52.7,8.9z
			 M52.7,19.1c2.1,0,3.5-1.7,3.5-4.1c0-2.1-1-4.3-3.5-4.3c-2.1,0-3.5,1.6-3.5,4C49.2,16.9,50.3,19.1,52.7,19.1z"/>
	</g>
	<polygon class="st0" points="64.6,0.3 64.6,20.5 68.4,20.5 68.4,12.6 76.1,12.6 76.1,9.2 68.4,9.2 68.4,3.8 77.4,3.8 77.4,0.3 	"/>
	<polygon class="st0" points="93.5,0.3 93.5,14.4 83.9,0.3 80.2,0.3 80.2,20.5 83.9,20.5 83.9,7.4 93.2,20.5 97.2,20.5 97.2,0.3
		"/>
	<path class="st0" d="M114.7,14.5c-1.2,1.5-3.1,2.5-5.2,2.5c-3.6,0-6.6-3-6.6-6.6c0-3.6,3-6.7,6.6-6.7c2.1,0,3.9,1,5.2,2.5l2.7-2.7
		c-1.9-2.2-4.7-3.6-7.8-3.6c-5.8,0-10.3,4.6-10.3,10.4c0,5.8,4.6,10.3,10.3,10.3c3.1,0,6-1.4,7.8-3.5L114.7,14.5z"/>
</g>
</svg>
